<!DOCTYPE svg PUBLIC "-//W3C//DTD SVG 1.1//EN" "http://www.w3.org/Graphics/SVG/1.1/DTD/svg11.dtd">
<!-- Uploaded to: SVG Repo, www.svgrepo.com, Transformed by: SVG Repo Mixer Tools -->
<svg fill="#000000" height="800px" width="800px" version="1.1" id="Capa_1" xmlns="http://www.w3.org/2000/svg" xmlns:xlink="http://www.w3.org/1999/xlink" viewBox="0 0 175.883 175.883" xml:space="preserve">
<g id="SVGRepo_bgCarrier" stroke-width="0"/>
<g id="SVGRepo_tracerCarrier" stroke-linecap="round" stroke-linejoin="round"/>
<g id="SVGRepo_iconCarrier"> <path d="M169.057,115.497l-18.82-40.493c-0.656-1.412-2.071-2.314-3.627-2.314H29.273c-1.556,0-2.971,0.902-3.627,2.314 l-18.82,40.493c-0.576,1.238-0.479,2.686,0.255,3.837c0.734,1.151,2.006,1.849,3.372,1.849h5.813v37.646 c0,9.404,7.651,17.055,17.055,17.055h109.241c9.404,0,17.055-7.65,17.055-17.055v-37.646h5.813c1.366,0,2.638-0.697,3.372-1.849 C169.537,118.183,169.633,116.735,169.057,115.497z M36.624,121.183H139.26v2.844c0,3.679-2.993,6.671-6.671,6.671H43.295 c-3.678,0-6.671-2.992-6.671-6.671V121.183z M151.616,158.828c0,4.993-4.062,9.055-9.055,9.055H33.321 c-4.993,0-9.055-4.062-9.055-9.055v-37.646h4.357v2.844c0,8.09,6.582,14.671,14.671,14.671h89.294 c8.089,0,14.671-6.581,14.671-14.671v-2.844h4.357V158.828z M146.381,64.476l-10.646-42.889c-0.443-1.783-2.044-3.036-3.882-3.036 H129.6v-1.239C129.6,7.766,121.834,0,112.289,0H63.594c-9.545,0-17.312,7.766-17.312,17.312v1.239h-2.252 c-1.838,0-3.439,1.253-3.882,3.036L29.502,64.476c-0.296,1.194-0.026,2.459,0.731,3.428c0.758,0.97,1.92,1.536,3.151,1.536h109.114 c1.23,0,2.393-0.566,3.151-1.536C146.407,66.935,146.677,65.67,146.381,64.476z M54.282,17.312C54.282,12.177,58.46,8,63.594,8 h48.695c5.134,0,9.312,4.177,9.312,9.312v2.429c0,5.135-4.177,9.312-9.312,9.312H63.594c-5.134,0-9.312-4.177-9.312-9.312V17.312z"/> </g>
</svg>